# xmcd
#
# Track frame offsets:
#	150
#	18076
#	37640
#	50651
#	67703
#	81728
#	94718
#	111287
#	127813
#	141780
#	158551
#	176083
#	193390
#	211445
#	231763
#	249974
#
# Disc length: 3525 seconds
#
# Revision: 0
# Processed by: cddbd v1.5.2PL0 Copyright (c) Steve Scherf et al.
# Submitted via: dBpowerAMP V4.0
#
DISCID=d00dc310
DTITLE=Alan Jackson - 16 Biggest Hits
DYEAR=2007
DGENRE=Country
TTITLE0=Chattahoochee
TTITLE1=Gone Country
TTITLE2=It Must Be Love
TTITLE3=Midnight In Montgomery
TTITLE4=Chasin' That Neon Rainbow
TTITLE5=Don't Rock The  Jukebox
TTITLE6=Mercury Blues
TTITLE7=Here In The Real World
TTITLE8=Pop A Top
TTITLE9=That'd Be Alright
TTITLE10=I Don't Even Know Your Name
TTITLE11=Gone Crazy
TTITLE12=I'll Go On Loving You
TTITLE13=Little Man
TTITLE14=Who's Cheatin' Who
TTITLE15=Summertime Blues
EXTD=
EXTT0=
EXTT1=
EXTT2=
EXTT3=
EXTT4=
EXTT5=
EXTT6=
EXTT7=
EXTT8=
EXTT9=
EXTT10=
EXTT11=
EXTT12=
EXTT13=
EXTT14=
EXTT15=
PLAYORDER=
